<svg width="47" height="43" viewBox="0 0 47 43" fill="none" xmlns="http://www.w3.org/2000/svg">
<path d="M45.6602 20.1234C45.6341 19.8802 45.5036 19.6544 45.3035 19.5067L34.472 11.8986L33.9413 9.77074C33.8804 9.52755 33.7151 9.31911 33.4889 9.21489L14.5838 0.086833C14.5838 0.086833 14.5403 0.0781479 14.5229 0.0694628C14.5142 0.0694628 14.5055 0.0520926 14.4881 0.0520926C14.4794 0.0520926 14.4707 0.0520926 14.4533 0.0520926C14.375 0.0260372 14.288 0.00866699 14.2097 0.00866699C14.1053 0.00866699 14.0009 0.0347223 13.8965 0.0781479C13.8704 0.086833 13.8443 0.0955181 13.8269 0.112888C13.8008 0.130259 13.7747 0.130259 13.7486 0.147629C13.679 0.191054 13.6268 0.243165 13.5746 0.303961L2.84753 12.8453C2.73443 12.9755 2.66483 13.1319 2.64743 13.2969L0.576836 31.1882C0.542036 31.4922 0.67253 31.7962 0.92483 31.9786L16.1585 42.8437C16.3064 42.9479 16.4804 43 16.6544 43C16.6805 43 16.6979 43 16.724 43L40.8578 40.985C40.9448 40.985 41.0231 40.9503 41.1014 40.9242C41.1101 40.9242 41.1275 40.9242 41.1362 40.9242C41.2406 40.8808 41.3276 40.8113 41.3972 40.7332C41.3972 40.7332 41.4146 40.7245 41.4233 40.7158L46.7912 34.7144C46.9478 34.5407 47.0261 34.3062 47 34.063L45.6602 20.1494V20.1234ZM16.6544 42.1402L1.42073 31.2751L3.49133 13.3837L13.4006 1.7978L14.2184 0.842438L14.8274 16.3019L22.5095 26.2551L24.4583 34.1151L40.7969 40.1165L38.7872 40.2815L16.6631 42.1315L16.6544 42.1402ZM41.3537 39.4912C41.2754 39.4217 41.1884 39.3609 41.084 39.3262L25.1717 33.4811L23.3273 26.0553C23.3012 25.9424 23.249 25.8295 23.1794 25.7427L15.6626 16.0066L15.0797 1.26801L33.1061 9.97918L33.7151 12.411L44.8076 20.2016L46.1474 34.1151L41.345 39.4825L41.3537 39.4912Z" fill="black"/>
</svg>
